<?xml version="1.0" encoding="utf-8"?>
<!-- Generator: Adobe Illustrator 26.3.1, SVG Export Plug-In . SVG Version: 6.00 Build 0)  -->
<svg version="1.1" id="Layer_1" xmlns="http://www.w3.org/2000/svg" xmlns:xlink="http://www.w3.org/1999/xlink" x="0px" y="0px"
	 viewBox="0 0 941.1 851.1" style="enable-background:new 0 0 941.1 851.1;" xml:space="preserve">
<style type="text/css">
	.st0{fill:none;}
	.st1{fill:url(#SVGID_1_);}
	.st2{fill:url(#SVGID_00000148662727928943108900000005964120914951852716_);}
	.st3{fill:#FFFFFF;}
</style>
<rect x="-58.9" y="-118.1" class="st0" width="1080" height="1080"/>
<linearGradient id="SVGID_1_" gradientUnits="userSpaceOnUse" x1="87.6118" y1="259.0192" x2="635.3218" y2="750.1592" gradientTransform="matrix(1 0 0 -1 0 854)">
	<stop  offset="0" style="stop-color:#CAAA6E"/>
	<stop  offset="0.16" style="stop-color:#CFAD70"/>
	<stop  offset="0.5" style="stop-color:#D4B173"/>
	<stop  offset="0.67" style="stop-color:#DAB678"/>
	<stop  offset="0.9" style="stop-color:#ECC385"/>
	<stop  offset="1" style="stop-color:#F6CA8C"/>
</linearGradient>
<path class="st1" d="M517.7,430.5c-12.5-11.4-27.5-18.4-43.1-24.5c-21.5-8.3-43-16.3-64.3-25c-17.5-7.2-33.4-17.1-46.8-30.8
	c-18.2-18.5-25.5-41.4-26.1-66.9c-0.3-14.9,2.1-29.6,5.6-44c15.4-63.9,52.5-109.6,113.9-134.7c27.3-11.2,55.7-16.8,85-19.2
	c27.9-2.3,55.7-0.5,83.4,3.2c14.8,1.9,29.4,5.1,44,7.8c2.1,0.5,4.3-0.2,5.7-1.9c4.8-5.1,9.9-10.1,14.6-15.3l0,0l0.2-0.2l0.5-0.5
	c0.2-0.2,0.3-0.4,0.5-0.6l1.7-2v-3.6l0,0c0.2-10.8,0.2-21.7,0.2-32.5c-0.1-1-0.2-2-0.3-3H425.1c-0.9,0-1.9,0-2.8,0.2
	c-6.2,1-12.4,2.3-18.7,3.2c-18.5,2.6-36.7,6.3-53.9,13.5C264.9,89.5,212,151.9,192.6,242.1c-2.3,10.8-4.4,21.8-4.4,32.8
	c-0.3,121.3-0.4,242.7-0.2,364v3l0.9,0.6l4.8-5.4c26.5-30.1,52.9-60.2,79.4-90.2c1.6-1.8,3.2-2.3,5.5-1.5
	c40.9,15.7,83,25.2,126.9,26.5c22.3,0.6,44.4-0.5,65.9-7.2c32.9-10.2,56.8-29.9,66.6-64.2c3.7-13,5.3-26.2,1.3-39.3
	C535.3,448.6,527.1,439,517.7,430.5"/>
<linearGradient id="SVGID_00000108280189122490365250000010594411909783272372_" gradientUnits="userSpaceOnUse" x1="175.7329" y1="160.7479" x2="723.4429" y2="651.888" gradientTransform="matrix(1 0 0 -1 0 854)">
	<stop  offset="0" style="stop-color:#CAAA6E"/>
	<stop  offset="0.16" style="stop-color:#CFAD70"/>
	<stop  offset="0.5" style="stop-color:#D4B173"/>
	<stop  offset="0.67" style="stop-color:#DAB678"/>
	<stop  offset="0.9" style="stop-color:#ECC385"/>
	<stop  offset="1" style="stop-color:#F6CA8C"/>
</linearGradient>
<path style="fill:url(#SVGID_00000108280189122490365250000010594411909783272372_);" d="M692.7,188.5c0-1.9-0.5-3.1-2.5-3.9
	c-35.7-13.4-72-23.7-110.4-25.6c-20.4-1-40.6,0-60.2,6.5c-20.8,6.9-36.5,19.8-46.1,39.6c-5.3,10.9-7.9,22.5-9.8,34.4
	c-2.3,14.7,2.3,26.8,13,36.7c8.2,7.7,17.9,13.7,28.4,17.8c17,6.6,34.1,13.4,51.2,19.8c20.1,7.5,39.8,15.9,57.7,27.9
	c34.2,22.9,50,55,48.4,95.8c-0.2,6.5-0.9,13-1.6,19.5c-0.2,2.6,0.4,4.3,2.8,5.6c3.8,2,7.4,4.2,11.1,6.2c4.4,2.4,4.1,3.6,6.2-2.4
	c6.7-20.3,10.9-41.1,11.2-62.5c0.5-35.2,0.1-70.5,0.1-105.7h0.4C692.6,261.7,692.6,225.1,692.7,188.5"/>
<path class="st3" d="M104.3,651.5c-3.3-6.3-10.9-10.3-17.8-10.3s-16.1,2.5-18,12c-1.6,8,4.5,10.5,14.4,14.1
	c14.1,5.3,32.2,12.2,27.5,36.2c-5.5,27.7-28.6,40.1-50.7,40.1c-15.9,0-30.8-6.3-38.3-17.3l21.5-19.4c3.9,7.3,12.8,12.7,21.6,12.7
	c8.2,0,16.1-3.4,18-13.1c1.8-9.2-6.1-12.1-19.8-17.2c-13.2-4.9-26-12.7-21.7-34.5c5.3-26.7,29.8-37.7,50.7-37.7
	c12.6,0,25.8,5.1,33.6,14.8L104.3,651.5z"/>
<path class="st3" d="M213.8,740.5l9.2-46.2c1.9-9.7,1.5-17.8-7.6-17.8c-8.8,0-14.8,8.8-16.7,18.3l-9.1,45.7h-25.8l9.6-48.2
	c1.9-9.7-0.3-15.8-8-15.8c-8.2,0-14.5,8-16.5,18.2l-9.1,45.8h-26l16.8-84.6h25.1l-2.3,11.7h0.3c5-7.1,14.4-14.1,26.3-14.1
	c11.4,0,18.2,5.3,20.8,14.4c7-8.8,16.3-14.4,27.9-14.4c21.3,0,24.8,18.7,21.6,34.6l-10.4,52.3L213.8,740.5z"/>
<path class="st3" d="M266.7,667.4c10.6-9,23.9-14,37.8-14.3c26.3,0,33.3,13.9,27.2,44.7l-8.5,42.6h-23.6l1.8-9H301
	c-5.3,7-15.1,11-24.4,11c-12.5,0-27.2-6.6-23.3-26.5c4.8-24.5,33.2-28.5,56.1-28.5l0.3-1.4c1.6-8.3-3.7-12.2-11.8-12.2
	c-7.4,0-15.4,3.9-21.1,8.7L266.7,667.4z M307,703.6h-3.3c-11.4,0-24.4,1.5-26.4,11.5c-1.3,6.5,4.3,8.7,9.5,8.7
	c10.4,0,17.6-6.8,19.7-17.3L307,703.6z"/>
<path class="st3" d="M399.8,678.7c-2.1-0.6-4.3-0.9-6.5-0.8c-13.9,0-20.9,12.2-22.2,19.2l-8.6,43.5h-25.8l16.8-84.6h24.9l-2.4,12.2
	h0.3c5.6-8.5,14.5-14.6,24.2-14.6c1.8-0.1,3.6,0.1,5.4,0.7L399.8,678.7z"/>
<path class="st3" d="M432,676.8l-6.4,32.3c-1.5,7.8,0,11.9,7.4,11.9c2.7,0,5.3-0.5,7.8-1.4l-3.7,20.4c-5,1.7-10.2,2.5-15.5,2.5
	c-21,0-25.5-12.1-21.9-30.1l7.1-35.7h-12.6l4.1-20.9h12.5l4.4-22.2h25.4l-4.4,22.2h18.4l-4.1,20.9L432,676.8z"/>
<polygon class="st3" points="440.2,740.5 445.2,715.3 512.3,644.9 460.4,644.9 465.3,620.2 550.9,620.2 546.3,643.5 477.7,715.3 
	533.1,715.3 528.2,740.5 "/>
<path class="st3" d="M575.5,743.2c-23.6,0-40-17.7-34.5-45.3s28.7-44.7,52.3-44.7s40.3,17,34.8,44.7S599.3,743.2,575.5,743.2
	 M588.8,676.3c-12.1,0-20.6,10.7-22.7,21.6s2.1,21.9,14.2,21.9s20.8-11,22.9-21.9S600.9,676.3,588.8,676.3"/>
<path class="st3" d="M681.8,740.5l9.2-46.2c1.9-9.3,1.2-17.8-8.1-17.8c-9.1,0-15.5,8.5-17.5,18.2l-9.1,45.8h-26l16.7-84.6h25
	l-2.3,11.7h0.3c5.1-7.5,15.4-14.1,26.3-14.1c21.1,0,25.2,17.7,21.8,34.6l-10.4,52.3H681.8z"/>
<path class="st3" d="M806,705.8h-56.9c-1.1,9.3,6.3,16,15.6,16c7.3,0,14.3-3.2,19.1-8.8l15.5,12.2c-9.7,11.5-23.3,18-39.2,18
	c-23.6,0-40-16.1-34.3-44.7c5.5-27.7,27.6-45.3,51.4-45.3c23.2,0,36,17.2,30.3,46C807.1,701.4,806.6,703.8,806,705.8 M785.9,688.5
	c1.8-8.8-2-16.1-12.2-16.1c-9.9,0-18.7,7.5-21,16.1H785.9z"/>
<path class="st3" d="M340.5,812.7c0.8-0.5,1.5-1,2.2-1.5c22.5-14.2,45.1-28.5,67.6-42.7c1.6-1.1,3.5-1.8,5.5-2.1
	c30.5-3.6,60.9-7.6,91.5-10.5c42.5-4,85.1-5.4,127.7-4.3c31.4,0.8,62.9,2.3,94.3,4.6c38.2,2.9,76.3,7.8,114.1,14.5
	c7.3,1.3,14.7,2.7,22,4.1C687.9,752.7,513,765.3,340.5,812.7"/>
<path class="st3" d="M867.6,680.9c-3.5-4.7-9-7.5-14.9-7.6c-4.9,0-10.2,1.9-11.1,6.8c-0.9,4.8,3,6.1,12.7,8.5
	c11.4,2.9,23.2,9.3,19.9,25.8c-4.2,21.4-23.2,28.9-39.3,28.9c-12.8,0-25.1-4.6-31.6-13.1l17.8-16.5c3.8,5.9,10.3,9.5,17.3,9.5
	c4.3,0,9.7-1.9,10.8-7.3c1-5.3-3.5-7-13.7-9.7c-10.3-2.7-21.1-8.7-18-24.6c4-20.2,23.3-28.4,38.2-28.4c11.7,0,23,4.1,29.2,11.9
	L867.6,680.9z"/>
<path class="st3" d="M926.7,619.9c-0.2,18.4-15.3,33.2-33.7,33c0,0,0,0-0.1,0c-18.3-0.3-33.4-15.6-33.3-33.8
	c0.1-18.6,15.3-33.5,33.9-33.3c0.1,0,0.2,0,0.3,0C912.6,586,926.7,600.6,926.7,619.9 M892.7,646.2c15.2,0.2,27.8-12,27.7-26.8
	c-0.1-14.7-11.9-26.6-26.6-27c-14.7-0.4-27,11.2-27.4,25.9c0,0.2,0,0.3,0,0.5C866.2,633.9,877.8,646,892.7,646.2"/>
<path class="st3" d="M897.8,638l-8.1-14.8h-3.1V638h-8.9v-37.3h14.2c7.2,0,14.3,2.7,14.3,11.3c0,5-3,8.6-7.8,10.1l9.8,16L897.8,638z
	 M891.5,608h-4.8v8.7h4.3c2.9,0,6.5-0.7,6.5-4.5C897.5,608.7,894.2,608,891.5,608"/>
</svg>
